<svg width="246" height="21" viewBox="0 0 246 21" fill="none" xmlns="http://www.w3.org/2000/svg">
<path d="M0.689706 20.5V0.619999H5.28171V16.468H14.9137V20.5H0.689706ZM25.4211 20.668C23.9278 20.668 22.5745 20.388 21.3611 19.828C20.1665 19.2493 19.1305 18.484 18.2531 17.532C17.3945 16.5613 16.7318 15.4787 16.2651 14.284C15.7985 13.0707 15.5651 11.82 15.5651 10.532C15.5651 9.20667 15.8078 7.94667 16.2931 6.752C16.7971 5.55733 17.4878 4.49333 18.3651 3.56C19.2611 2.608 20.3158 1.86133 21.5291 1.32C22.7425 0.778665 24.0678 0.507999 25.5051 0.507999C26.9798 0.507999 28.3145 0.797332 29.5091 1.376C30.7225 1.936 31.7585 2.70133 32.6171 3.672C33.4945 4.64267 34.1665 5.73467 34.6331 6.948C35.0998 8.14267 35.3331 9.36533 35.3331 10.616C35.3331 11.9413 35.0905 13.2013 34.6051 14.396C34.1198 15.5907 33.4291 16.664 32.5331 17.616C31.6371 18.5493 30.5825 19.296 29.3691 19.856C28.1745 20.3973 26.8585 20.668 25.4211 20.668ZM20.2411 10.588C20.2411 11.3533 20.3531 12.1 20.5771 12.828C20.8011 13.5373 21.1278 14.172 21.5571 14.732C22.0051 15.292 22.5558 15.74 23.2091 16.076C23.8625 16.412 24.6091 16.58 25.4491 16.58C26.3265 16.58 27.0918 16.412 27.7451 16.076C28.3985 15.7213 28.9398 15.2547 29.3691 14.676C29.7985 14.0973 30.1158 13.4533 30.3211 12.744C30.5451 12.016 30.6571 11.2787 30.6571 10.532C30.6571 9.76667 30.5451 9.02933 30.3211 8.32C30.0971 7.61067 29.7611 6.976 29.3131 6.416C28.8651 5.83733 28.3145 5.38933 27.6611 5.072C27.0078 4.75467 26.2705 4.596 25.4491 4.596C24.5718 4.596 23.8065 4.764 23.1531 5.1C22.5185 5.436 21.9771 5.89333 21.5291 6.472C21.0998 7.032 20.7731 7.676 20.5491 8.404C20.3438 9.11333 20.2411 9.84133 20.2411 10.588ZM37.9866 20.5V0.619999H46.9466C47.8799 0.619999 48.7386 0.815999 49.5226 1.208C50.3252 1.58133 51.0159 2.09467 51.5946 2.748C52.1732 3.38267 52.6212 4.10133 52.9386 4.904C53.2746 5.70667 53.4426 6.51867 53.4426 7.34C53.4426 8.16133 53.3119 8.94533 53.0506 9.692C52.7892 10.42 52.4159 11.0827 51.9306 11.68C51.4452 12.2587 50.8666 12.7347 50.1946 13.108L54.5626 20.5H49.4946L45.6866 14.088H42.5786V20.5H37.9866ZM42.5786 10.084H46.7786C47.1519 10.084 47.4786 9.972 47.7586 9.748C48.0572 9.50533 48.2999 9.17867 48.4866 8.768C48.6732 8.35733 48.7666 7.88133 48.7666 7.34C48.7666 6.79867 48.6546 6.332 48.4306 5.94C48.2252 5.52933 47.9639 5.212 47.6466 4.988C47.3292 4.764 46.9932 4.652 46.6386 4.652H42.5786V10.084ZM70.7164 16.468V20.5H56.7444V0.619999H70.4644V4.652H61.3364V8.516H69.1764V12.24H61.3364V16.468H70.7164ZM89.1861 20.5V8.656L84.9021 17.28H82.3821L78.0981 8.656V20.5H73.5061V0.619999H78.4901L83.6421 11.008L88.8221 0.619999H93.7781V20.5H89.1861ZM97.596 20.5V0.619999H102.188V20.5H97.596ZM105.99 20.5V0.619999H114.474C115.426 0.619999 116.294 0.815999 117.078 1.208C117.881 1.58133 118.572 2.09467 119.15 2.748C119.729 3.38267 120.177 4.10133 120.494 4.904C120.812 5.70667 120.97 6.528 120.97 7.368C120.97 8.50667 120.7 9.58933 120.158 10.616C119.636 11.6427 118.898 12.4827 117.946 13.136C117.013 13.7707 115.902 14.088 114.614 14.088H110.582V20.5H105.99ZM110.582 10.084H114.334C114.689 10.084 115.016 9.98133 115.314 9.776C115.613 9.57067 115.856 9.26267 116.042 8.852C116.229 8.44133 116.322 7.93733 116.322 7.34C116.322 6.724 116.21 6.22 115.986 5.828C115.781 5.41733 115.51 5.11867 115.174 4.932C114.857 4.74533 114.521 4.652 114.166 4.652H110.582V10.084ZM135.364 6.444C135.308 6.35067 135.112 6.21067 134.776 6.024C134.44 5.81867 134.02 5.604 133.516 5.38C133.012 5.156 132.461 4.96 131.864 4.792C131.266 4.624 130.669 4.54 130.072 4.54C129.288 4.54 128.681 4.68 128.252 4.96C127.822 5.22133 127.608 5.632 127.608 6.192C127.608 6.64 127.766 6.99467 128.084 7.256C128.42 7.51733 128.896 7.75067 129.512 7.956C130.128 8.14267 130.884 8.36667 131.78 8.628C133.049 8.964 134.15 9.37467 135.084 9.86C136.017 10.3267 136.726 10.9333 137.212 11.68C137.716 12.4267 137.968 13.416 137.968 14.648C137.968 15.768 137.762 16.72 137.352 17.504C136.941 18.2693 136.381 18.8947 135.672 19.38C134.981 19.8467 134.188 20.192 133.292 20.416C132.396 20.6213 131.472 20.724 130.52 20.724C129.549 20.724 128.55 20.6307 127.524 20.444C126.516 20.2387 125.545 19.9587 124.612 19.604C123.678 19.2307 122.82 18.7827 122.036 18.26L124.052 14.256C124.126 14.3493 124.369 14.5267 124.78 14.788C125.19 15.0307 125.694 15.292 126.292 15.572C126.908 15.8333 127.589 16.0667 128.336 16.272C129.082 16.4773 129.838 16.58 130.604 16.58C131.425 16.58 132.032 16.4493 132.424 16.188C132.834 15.9267 133.04 15.5627 133.04 15.096C133.04 14.592 132.825 14.2 132.396 13.92C131.985 13.64 131.416 13.388 130.688 13.164C129.978 12.94 129.157 12.688 128.224 12.408C127.01 12.0347 126.002 11.6147 125.2 11.148C124.416 10.6813 123.828 10.112 123.436 9.44C123.062 8.768 122.876 7.928 122.876 6.92C122.876 5.52 123.202 4.344 123.856 3.392C124.528 2.42133 125.424 1.69333 126.544 1.208C127.664 0.704 128.886 0.451999 130.212 0.451999C131.145 0.451999 132.041 0.563999 132.9 0.787998C133.777 1.012 134.589 1.292 135.336 1.628C136.101 1.964 136.782 2.3 137.38 2.636L135.364 6.444ZM149.202 20.668C147.616 20.668 146.262 20.4067 145.142 19.884C144.022 19.3427 143.108 18.6147 142.398 17.7C141.708 16.7667 141.194 15.712 140.858 14.536C140.541 13.3413 140.382 12.0907 140.382 10.784V0.619999H144.974V10.784C144.974 11.5307 145.049 12.2587 145.198 12.968C145.348 13.6587 145.59 14.2747 145.926 14.816C146.262 15.3573 146.692 15.7867 147.214 16.104C147.756 16.4213 148.418 16.58 149.202 16.58C150.005 16.58 150.677 16.4213 151.218 16.104C151.76 15.768 152.189 15.3293 152.506 14.788C152.824 14.228 153.057 13.6027 153.206 12.912C153.356 12.2213 153.43 11.512 153.43 10.784V0.619999H158.022V10.784C158.022 12.1653 157.845 13.4533 157.49 14.648C157.154 15.8427 156.632 16.8973 155.922 17.812C155.213 18.708 154.298 19.408 153.178 19.912C152.077 20.416 150.752 20.668 149.202 20.668ZM177.26 20.5V8.656L172.976 17.28H170.456L166.172 8.656V20.5H161.58V0.619999H166.564L171.716 11.008L176.896 0.619999H181.852V20.5H177.26ZM185.278 20.5V15.936H188.946V20.5H185.278Z" fill="white"/>
<path d="M196.961 9.132V20.5H192.369V0.619999H196.009L205.221 12.324V0.619999H209.813V20.5H206.061L196.961 9.132ZM227.587 16.468V20.5H213.615V0.619999H227.335V4.652H218.207V8.516H226.047V12.24H218.207V16.468H227.587ZM245.525 4.652H239.477V20.5H234.885V4.652H228.809V0.619999H245.525V4.652Z" fill="#42A9ED"/>
</svg>
